<svg width="62" height="61" viewBox="0 0 62 61" fill="none" xmlns="http://www.w3.org/2000/svg">
<path d="M30.9229 50.4682C19.8704 50.4682 10.9271 41.5373 10.9271 30.5C10.9271 19.4627 19.8704 10.5318 30.9229 10.5318C41.9753 10.5318 50.9186 19.4627 50.9186 30.5C50.9186 33.2804 50.328 35.9765 49.3155 38.3356L57.0776 46.087C59.8618 41.5373 61.3805 36.145 61.3805 30.4157C61.4648 13.6492 47.7969 0 30.9229 0C14.0488 0 0.380859 13.6492 0.380859 30.5C0.380859 47.3508 14.0488 61 30.9229 61C36.66 61 42.0597 59.3992 46.6157 56.703L38.7693 48.8674C36.4069 49.8785 33.7071 50.4682 30.9229 50.4682ZM25.0169 30.5C25.0169 33.7859 27.6324 36.3978 30.9229 36.3978C34.2133 36.3978 36.8288 33.7859 36.8288 30.5C36.8288 27.2141 34.2133 24.6022 30.9229 24.6022C27.6324 24.6022 25.0169 27.2141 25.0169 30.5ZM59.8618 51.9848C61.8867 54.0069 61.8867 57.3771 59.8618 59.3992C57.8369 61.4213 54.4621 61.4213 52.4372 59.3992L36.9975 43.9807C34.9726 41.9586 34.9726 38.5884 36.9975 36.5663C39.0224 34.5442 42.3972 34.5442 44.4221 36.5663L59.8618 51.9848Z" fill="#F3CD00"/>
</svg>
